<?xml version="1.0" encoding="utf-8"?>
<svg version="1.0" xmlns="http://www.w3.org/2000/svg"
     width="512.000000pt" height="512.000000pt" viewBox="0 0 512.000000 512.000000"
     preserveAspectRatio="xMidYMid meet">
    <defs>
        <linearGradient x1="68.1279872%" y1="-35.6905737%" x2="30.4400914%" y2="114.942679%" id="linearGradient-1">
            <stop stop-color="#FA8E7D" offset="0%"></stop>
            <stop stop-color="#F74A5C" offset="51.2635191%"></stop>
            <stop stop-color="#F51D2C" offset="100%"></stop>
        </linearGradient>
        <linearGradient x1="68.1279872%" y1="-35.6905737%" x2="74.5363914%" y2="162.511755%" id="linearGradient-2">
            <stop stop-color="#FA8E7D" offset="0%"></stop>
            <stop stop-color="#F74A5C" offset="51.2635191%"></stop>
            <stop stop-color="#F51D2C" offset="100%"></stop>
        </linearGradient>
        <linearGradient x1="69.644116%" y1="0%" x2="69.644116%" y2="100%" id="linearGradient-3">
            <stop stop-color="#29CDFF" offset="0%"></stop>
            <stop stop-color="#148EFF" offset="37.8600687%"></stop>
            <stop stop-color="#0A60FF" offset="100%"></stop>
        </linearGradient>
        <linearGradient x1="-19.8191553%" y1="-36.7931464%" x2="138.57919%" y2="157.637507%" id="linearGradient-4">
            <stop stop-color="#29CDFF" offset="0%"></stop>
            <stop stop-color="#0F78FF" offset="100%"></stop>
        </linearGradient>
    </defs>
<g transform="translate(0.000000,512.000000) scale(0.100000,-0.100000)"
   fill="none" fill-rule="evenodd">
<path d="M903 5106 c-60 -19 -106 -50 -157 -107 -73 -81 -81 -119 -81 -364 0
-231 5 -254 67 -342 17 -23 29 -45 27 -47 -2 -2 -105 -52 -229 -111 -243 -115
-280 -141 -280 -199 0 -53 110 -203 229 -312 l56 -52 -23 -38 c-32 -53 -61
-119 -80 -179 -15 -45 -17 -196 -20 -1410 -2 -1208 -1 -1369 13 -1438 40 -197
159 -353 335 -442 138 -69 10 -65 1858 -65 1189 0 1686 3 1724 11 175 37 348
173 427 336 70 143 66 38 66 1563 0 1275 -1 1380 -17 1438 -24 84 -71 177
-119 234 -21 26 -39 49 -39 52 0 3 29 38 65 77 92 102 145 185 145 225 0 56
-39 85 -240 180 -102 48 -187 88 -189 90 -2 2 16 24 42 49 86 86 92 106 95
373 l3 232 -27 60 c-31 69 -95 134 -169 170 l-50 25 -1695 2 c-1375 1 -1703
-1 -1737 -11z m3397 -208 c72 -37 80 -62 80 -264 0 -161 -1 -173 -23 -205 -12
-19 -38 -42 -57 -51 -33 -17 -133 -18 -1673 -18 -1776 0 -1674 -3 -1727 54
-25 27 -25 31 -28 214 -3 216 3 237 81 272 41 19 86 20 1672 20 l1631 0 44
-22z m41 -874 c145 -69 265 -127 267 -129 2 -1 -23 -31 -55 -66 -116 -125
-292 -234 -452 -278 -182 -50 -361 -49 -545 4 -47 14 -97 25 -110 25 -13 0
-64 -26 -112 -59 -249 -164 -495 -241 -774 -241 -279 0 -525 77 -774 241 -48
33 -99 59 -112 59 -13 0 -63 -11 -110 -25 -184 -53 -363 -54 -545 -4 -160 44
-336 153 -453 279 l-58 64 173 83 c96 45 215 103 264 127 l90 45 1521 0 1521
1 264 -126z m202 -580 c20 -27 47 -74 60 -104 l22 -55 3 -1349 c2 -1193 1
-1356 -13 -1410 -29 -110 -96 -201 -196 -261 -111 -68 -23 -65 -1795 -65
-1032 0 -1620 4 -1655 10 -132 25 -251 119 -312 247 l-32 68 0 1386 0 1385 38
77 c21 42 42 77 47 77 5 0 25 -8 44 -17 l36 -17 2 -1420 c3 -1419 3 -1421 24
-1466 24 -53 72 -102 123 -127 34 -17 121 -18 1674 -21 l1638 -2 50 21 c58 26
124 95 139 148 6 23 10 543 10 1483 0 1368 1 1448 18 1457 25 15 33 10 75 -45z
m-293 -269 l0 -205 -1625 0 -1625 0 0 186 0 186 23 -5 c139 -35 405 -34 545 3
l83 22 81 -53 c491 -315 1165 -315 1656 0 l82 53 62 -16 c210 -51 437 -49 626
8 42 13 80 24 85 25 4 0 7 -91 7 -204z m0 -1483 c0 -907 -2 -1071 -14 -1088
-14 -19 -43 -19 -1598 -21 -1264 -2 -1588 0 -1608 10 l-25 13 -3 1077 -2 1077
1625 0 1625 0 0 -1068z" fill="url(#linearGradient-3)" fill-rule="nonzero"/>
<path d="M3869 2311 c-40 -40 -41 -106 -3 -145 55 -54 156 -24 170 50 19 100
-96 165 -167 95z" fill="url(#linearGradient-2)" fill-rule="nonzero"/>
<path d="M2868 2315 c-36 -20 -53 -74 -38 -119 14 -43 48 -66 98 -66 90 0 129
110 62 173 -34 31 -79 35 -122 12z" fill="url(#linearGradient-2)" fill-rule="nonzero"/>
<path d="M1913 2232 c-133 -48 -200 -152 -191 -297 4 -54 11 -84 31 -116 96
-164 306 -199 445 -74 121 109 128 307 14 418 -77 75 -202 104 -299 69z m138
-205 c43 -33 49 -83 14 -121 -39 -43 -105 -35 -131 16 -37 71 55 153 117 105z" fill="url(#linearGradient-2)" fill-rule="nonzero"/>
<path d="M3123 1652 c-201 -72 -295 -300 -201 -488 112 -226 425 -259 587 -61
13 16 35 56 49 90 21 52 24 72 20 146 -5 102 -34 167 -101 233 -89 87 -239
121 -354 80z m208 -228 c95 -91 33 -244 -98 -244 -100 0 -173 112 -129 198 47
91 157 113 227 46z" fill="url(#linearGradient-2)" fill-rule="nonzero"/>
<path d="M1505 1168 c-60 -33 -75 -115 -29 -162 64 -63 174 -17 174 72 -1 75
-81 125 -145 90z" fill="url(#linearGradient-2)" fill-rule="nonzero"/>
<path d="M3689 931 c-64 -65 -20 -171 71 -171 58 0 100 42 100 100 0 91 -106
135 -171 71z" fill="url(#linearGradient-2)" fill-rule="nonzero"/>
</g>
</svg>
