<?xml version="1.0" encoding="utf-8"?>
<svg version="1.0" xmlns="http://www.w3.org/2000/svg"
     width="512.000000pt" height="512.000000pt" viewBox="0 0 512.000000 512.000000"
     preserveAspectRatio="xMidYMid meet">
    <defs>
        <linearGradient x1="68.1279872%" y1="-35.6905737%" x2="30.4400914%" y2="114.942679%" id="linearGradient-1">
            <stop stop-color="#FA8E7D" offset="0%"></stop>
            <stop stop-color="#F74A5C" offset="51.2635191%"></stop>
            <stop stop-color="#F51D2C" offset="100%"></stop>
        </linearGradient>
        <linearGradient x1="68.1279872%" y1="-35.6905737%" x2="74.5363914%" y2="162.511755%" id="linearGradient-2">
            <stop stop-color="#FA8E7D" offset="0%"></stop>
            <stop stop-color="#F74A5C" offset="51.2635191%"></stop>
            <stop stop-color="#F51D2C" offset="100%"></stop>
        </linearGradient>
        <linearGradient x1="69.644116%" y1="0%" x2="69.644116%" y2="100%" id="linearGradient-3">
            <stop stop-color="#29CDFF" offset="0%"></stop>
            <stop stop-color="#148EFF" offset="37.8600687%"></stop>
            <stop stop-color="#0A60FF" offset="100%"></stop>
        </linearGradient>
        <linearGradient x1="-19.8191553%" y1="-36.7931464%" x2="138.57919%" y2="157.637507%" id="linearGradient-4">
            <stop stop-color="#29CDFF" offset="0%"></stop>
            <stop stop-color="#0F78FF" offset="100%"></stop>
        </linearGradient>
    </defs>
    <g transform="translate(0.000000,512.000000) scale(0.100000,-0.100000)"
       fill="none" fill-rule="evenodd">
        <path d="M2185 5109 c-450 -16 -919 -110 -1206 -239 -49 -22 -105 -40 -124
-40 -74 0 -105 -33 -140 -155 -31 -107 -55 -285 -55 -411 l0 -122 -36 -7 c-54
-10 -84 -45 -84 -98 0 -44 -1 -45 -37 -52 -20 -3 -49 -19 -65 -35 -38 -38 -37
-77 2 -115 16 -16 30 -32 30 -36 0 -3 -29 -39 -65 -79 -79 -88 -141 -174 -190
-263 -36 -65 -37 -70 -38 -180 -2 -124 2 -135 57 -164 35 -18 136 -26 334 -26
l132 -1 0 -46 c0 -25 -4 -115 -10 -200 -39 -618 -70 -1386 -70 -1755 0 -300
-2 -284 77 -493 44 -117 51 -128 124 -206 92 -98 202 -190 253 -211 78 -33
361 -92 466 -99 58 -3 139 -13 180 -22 41 -9 134 -23 205 -30 173 -19 656 -29
737 -16 35 6 137 16 228 22 148 10 269 27 540 75 47 9 139 19 205 24 99 8 133
14 194 40 41 17 88 42 105 54 17 12 42 28 56 34 14 5 45 27 69 47 24 20 53 42
63 47 11 6 51 58 88 116 72 110 88 155 95 271 2 31 12 80 21 107 9 28 21 100
25 160 4 61 15 171 24 245 32 266 31 1457 -2 2004 l-6 109 85 -46 c46 -25 107
-51 134 -57 29 -7 61 -23 79 -39 47 -44 69 -52 125 -45 28 4 53 11 56 15 3 5
13 9 22 9 49 0 89 141 77 270 -8 88 -11 95 -78 169 -29 32 -93 104 -144 162
-50 57 -112 120 -138 139 -43 32 -46 37 -39 65 15 61 6 107 -27 141 l-31 32
25 38 c14 22 28 50 32 63 7 22 5 23 -16 17 -13 -4 -44 -12 -69 -17 -24 -5 -49
-14 -54 -19 -19 -19 -23 -9 -30 88 -4 53 -16 136 -27 184 -15 65 -18 92 -10
107 30 56 -14 132 -102 177 -184 92 -638 201 -1107 265 -125 17 -584 41 -715
37 -22 -1 -125 -5 -230 -9z m-108 -442 c-2 -148 0 -176 15 -199 34 -52 109
-54 128 -3 6 15 10 105 10 201 l0 174 50 0 49 0 11 -41 c22 -82 81 -129 135
-109 24 9 27 16 43 100 l8 45 189 -1 c247 -2 486 -31 790 -95 144 -30 217 -48
463 -115 l142 -39 12 -40 c16 -55 16 -259 0 -314 l-13 -44 -77 7 c-157 15
-626 37 -887 43 -589 12 -1334 -47 -1783 -142 -52 -10 -131 -15 -271 -15
l-198 0 -14 48 c-10 33 -14 103 -13 242 1 191 8 250 32 258 9 3 10 -17 5 -85
-5 -48 -8 -123 -8 -165 0 -65 3 -81 21 -98 44 -45 140 -34 164 18 6 15 16 106
22 202 5 96 12 178 16 181 4 3 35 13 68 21 l62 15 -6 -173 c-6 -198 0 -227 53
-244 41 -13 62 -5 81 32 12 24 15 68 14 228 l0 198 62 11 c34 6 63 9 65 8 1
-2 -7 -66 -18 -143 -23 -154 -22 -294 1 -331 28 -44 101 -50 136 -12 24 26 47
262 39 405 l-6 111 133 12 c73 7 142 14 153 15 11 2 43 4 72 5 l52 1 -2 -173z
m1439 -662 c110 -9 279 -24 375 -34 162 -16 178 -20 237 -51 l63 -34 50 17 50
18 72 -67 c68 -64 115 -114 265 -283 60 -67 62 -71 37 -71 -14 0 -61 18 -105
40 -44 22 -114 54 -155 70 -70 28 -85 30 -200 30 l-124 0 -92 -45 c-73 -35
-103 -45 -143 -45 -63 0 -296 51 -362 79 -27 11 -143 45 -259 76 l-209 55 -73
-15 c-101 -21 -215 -72 -440 -198 -272 -152 -317 -169 -428 -167 -117 2 -231
30 -500 124 -174 61 -211 66 -365 46 -159 -21 -244 -52 -386 -142 -108 -69
-188 -101 -261 -106 -75 -5 -127 8 -137 34 -7 19 68 158 121 223 24 30 47 60
51 66 4 7 28 27 53 46 101 75 205 158 227 181 l22 25 183 -5 c176 -4 190 -3
432 37 380 62 442 69 990 110 172 13 775 5 1011 -14z m-356 -529 c69 -19 177
-53 240 -76 111 -40 118 -41 200 -35 71 5 95 2 144 -15 38 -13 85 -20 131 -20
62 0 81 5 151 38 43 21 92 42 108 46 l28 7 -6 -103 c-3 -57 -11 -202 -17 -323
-7 -121 -13 -221 -14 -223 -1 -1 -116 7 -256 18 -823 65 -1421 95 -1834 94
-158 -1 -354 -21 -383 -41 -51 -32 -55 -59 -63 -468 -5 -209 -16 -528 -25
-709 -18 -346 -15 -729 5 -797 16 -51 90 -104 134 -94 54 11 69 9 167 -19 86
-25 112 -28 285 -30 156 -3 219 1 350 20 558 81 806 99 1160 83 132 -5 273
-12 314 -15 l74 -6 -6 -64 c-11 -111 -57 -174 -200 -272 -49 -34 -84 -52 -94
-48 -9 4 -68 0 -132 -9 -218 -29 -326 -44 -456 -64 -71 -12 -218 -28 -325 -36
-107 -9 -217 -20 -245 -25 -78 -14 -333 -11 -510 5 -127 11 -595 73 -602 79
-1 0 3 21 7 46 16 83 13 109 -20 142 -27 26 -36 30 -68 25 -23 -4 -43 -15 -52
-29 -34 -50 -55 -69 -72 -63 -28 11 -27 29 8 109 47 105 53 153 24 189 -34 43
-69 37 -137 -25 -32 -28 -59 -57 -61 -64 -2 -7 -9 -15 -16 -17 -10 -4 -17 11
-25 50 -20 103 -16 123 55 266 73 145 124 289 124 353 0 54 -30 94 -71 94 -30
0 -49 -16 -107 -87 l-23 -28 7 85 c6 79 10 90 54 160 26 41 73 122 106 179 32
57 74 129 91 160 44 77 56 134 35 171 -28 49 -79 62 -131 36 -25 -13 -42 -31
-111 -114 -18 -22 -19 -19 -14 180 2 112 6 374 9 583 3 209 9 414 13 455 l7
74 45 13 c25 7 81 16 125 19 73 5 88 3 170 -26 50 -18 117 -46 150 -63 33 -16
128 -47 210 -68 132 -34 164 -39 270 -39 93 0 135 5 185 21 94 29 231 97 383
188 184 111 291 161 341 161 23 -1 97 -16 166 -34z m-675 -836 c433 -15 849
-38 1045 -60 52 -5 175 -17 274 -26 98 -9 211 -21 250 -28 l71 -12 5 -149 c12
-305 -12 -942 -44 -1195 l-11 -95 -170 5 c-94 3 -327 5 -520 4 -385 0 -430 -5
-760 -70 -150 -30 -201 -36 -305 -36 -69 1 -178 -6 -242 -15 l-117 -15 -60 37
c-34 20 -75 50 -92 68 l-32 31 7 176 c3 96 9 451 13 789 l6 614 186 -6 c102
-4 326 -12 496 -17z"  fill="url(#linearGradient-3)" fill-rule="nonzero"/>
        <path d="M2589 2351 c-60 -40 -156 -136 -184 -186 -36 -63 -40 -99 -14 -134
46 -62 126 -48 202 35 28 30 56 54 63 54 7 0 15 -13 19 -29 10 -46 60 -118
106 -151 40 -28 47 -30 136 -30 93 0 95 0 151 39 31 22 72 55 90 75 19 20 37
36 42 36 4 0 20 -20 34 -44 14 -25 46 -61 70 -80 l43 -36 104 0 c95 0 110 3
167 30 l64 30 60 -53 60 -52 109 -3 c98 -3 112 -2 144 18 54 34 68 71 44 124
-16 34 -66 56 -127 56 -39 0 -58 6 -90 30 -23 17 -42 34 -42 38 0 5 -21 19
-47 32 -63 32 -119 29 -217 -9 -42 -17 -94 -34 -116 -37 -39 -6 -42 -5 -98 54
-31 33 -67 62 -79 65 -35 8 -110 -10 -219 -53 -155 -60 -155 -60 -200 73 -27
80 -44 103 -93 123 -58 24 -131 18 -182 -15z"  fill="url(#linearGradient-1)" fill-rule="nonzero"/>
        <path d="M2970 1566 c-3 -3 -41 -9 -84 -15 -91 -11 -116 -28 -116 -78 0 -50
16 -72 68 -96 43 -19 75 -22 347 -30 332 -9 547 -6 567 10 7 6 24 13 38 17 33
8 80 72 80 107 0 20 -10 36 -37 56 l-36 28 -411 3 c-226 2 -413 1 -416 -2z" fill="url(#linearGradient-2)" fill-rule="nonzero"/>
    </g>
</svg>
